<?xml version="1.0" encoding="utf-8"?>
<!-- Generator: Adobe Illustrator 19.2.1, SVG Export Plug-In . SVG Version: 6.00 Build 0)  -->
<svg version="1.1" id="layer" xmlns="http://www.w3.org/2000/svg" xmlns:xlink="http://www.w3.org/1999/xlink" x="0px" y="0px"
	 viewBox="0 0 652 652" style="enable-background:new 0 0 652 652;" xml:space="preserve">
<style type="text/css">
	.st0{fill:#BDBBBB;}
	.st1{fill:#82BC00;}
</style>
<g>
	<path class="st0" d="M330.2,448.9c25.7,0,50.1-7,68.6-19.8c0.6-0.4,1.3-0.9,1.9-1.3c11.7-8.5,20.2-18.8,25-30.2
		c-4.9-13.7-13.6-26.1-25.7-36.4c-2.1-1.8-4.3-3.5-6.5-5c-17.8-12.7-40-19.6-63.3-19.6c-23.3,0-45.5,6.9-63.3,19.6
		c-2.2,1.6-4.4,3.3-6.5,5c-12.1,10.3-20.9,22.7-25.7,36.4c-2.9,8.3-4.4,17-4.4,25.9c0,23.7,10.7,45.8,30.2,62.2
		c18.8,15.9,43.6,24.6,69.8,24.6c26.3,0,51-8.7,69.8-24.6c3.8-3.3,7.3-6.7,10.5-10.4c-4.1-2.1-8.1-4.4-11.8-6.9
		c-4.5-3.1-8.6-6.5-12.2-10.1c-12.9,13.8-33.4,22.8-56.3,22.8c-37.3,0-67.9-23.6-70.6-53.4c0.6,0.4,1.3,0.9,1.9,1.3
		C280,441.8,304.4,448.9,330.2,448.9 M330.2,365.8c26.9,0,50.3,12.3,62.3,30.3c-12.1,13.9-35.8,23.5-62.3,23.5
		c-26.5,0-50.2-9.6-62.3-23.5C279.8,378.1,303.3,365.8,330.2,365.8"/>
	<path class="st0" d="M184.1,509.7h32V337.3l-80.9,73.1c-2.7,2.7-6.5,4.2-10.5,4.2c-4,0-7.7-1.5-10.5-4.2L32,337.3v172.4h32V408
		l28.2,25.4c8.7,8.5,20.2,13.2,32.4,13.2c12.3,0,23.9-4.7,32.6-13.3l26.8-24.3V509.7z"/>
	<path class="st1" d="M530.7,253.2c25.7,0,50.1-7,68.7-19.8c0.6-0.4,1.3-0.9,1.9-1.4c11.7-8.5,20.2-18.8,25-30.2
		c-4.9-13.6-13.6-26.1-25.7-36.3c-2.1-1.8-4.3-3.5-6.5-5.1c-17.8-12.7-40-19.6-63.3-19.6c-23.3,0-45.5,6.9-63.3,19.6
		c-2.2,1.6-4.4,3.3-6.5,5.1c-12.1,10.3-20.9,22.7-25.7,36.3c-2.9,8.3-4.5,17-4.5,25.9c0,23.7,10.7,45.8,30.2,62.3
		c18.8,15.9,43.6,24.6,69.8,24.6c26.3,0,51-8.7,69.8-24.6c3.8-3.2,7.3-6.7,10.5-10.4c-4.2-2.1-8.1-4.4-11.8-7
		c-4.5-3.1-8.6-6.5-12.2-10.1c-12.9,13.8-33.3,22.8-56.3,22.8c-37.3,0-67.9-23.6-70.6-53.4c0.6,0.5,1.3,0.9,1.9,1.4
		C480.6,246.2,504.9,253.2,530.7,253.2 M530.7,170.2c26.9,0,50.3,12.3,62.3,30.3c-12.1,13.8-35.8,23.5-62.3,23.5
		c-26.5,0-50.2-9.7-62.3-23.5C480.4,182.5,503.8,170.2,530.7,170.2"/>
	<path class="st1" d="M126.3,253.2c25.7,0,50.1-7,68.7-19.8c0.6-0.4,1.3-0.9,1.9-1.4c11.7-8.5,20.2-18.8,24.9-30.2
		c-4.9-13.6-13.6-26.1-25.7-36.3c-2.1-1.8-4.3-3.5-6.5-5.1c-17.8-12.7-40-19.6-63.3-19.6c-23.3,0-45.5,6.9-63.3,19.6
		c-2.2,1.6-4.4,3.3-6.5,5.1c-12.1,10.3-20.9,22.7-25.7,36.3c-2.9,8.3-4.5,17-4.5,25.9c0,23.7,10.7,45.8,30.2,62.3
		c18.8,15.9,43.6,24.6,69.8,24.6c26.3,0,51.1-8.7,69.8-24.6c3.8-3.2,7.3-6.7,10.5-10.4c-4.1-2.1-8.1-4.4-11.8-7
		c-4.5-3.1-8.6-6.5-12.2-10.1c-12.9,13.8-33.4,22.8-56.3,22.8c-37.3,0-67.9-23.6-70.6-53.4c0.6,0.5,1.3,0.9,1.9,1.4
		C76.1,246.2,100.5,253.2,126.3,253.2 M126.3,170.2c26.9,0,50.3,12.3,62.3,30.3c-12.1,13.8-35.8,23.5-62.3,23.5
		c-26.5,0-50.2-9.7-62.3-23.5C75.9,182.5,99.3,170.2,126.3,170.2"/>
	<path class="st1" d="M462.5,143.3h-46.2l-68.1,67.3c-5.6,5.6-13.2,8.7-21.2,8.7c-8.1,0-15.6-3.1-21.2-8.7l-64.8-67.3h-46.3l88,90.5
		c7.9,7.9,17.7,13.4,28.3,16.2v64.3h32V250c10.7-2.8,20.5-8.3,28.4-16.2L462.5,143.3z"/>
	<path class="st0" d="M596.5,358L596.5,358c-18.2-13.8-41.4-21.4-65.8-21.4c-26.2,0-51.1,8.7-69.8,24.6
		c-19.5,16.5-30.2,38.6-30.2,62.2c0,23.7,10.7,45.8,30.2,62.2c18.8,15.9,43.6,24.6,69.8,24.6c24.4,0,47.6-7.6,65.8-21.4v20.7h29.8
		V318.1h-29.8V358z M530.7,481.1c-39,0-70.8-25.8-70.8-57.6c0-31.8,31.8-57.6,70.8-57.6c39,0,70.8,25.9,70.8,57.6
		C601.5,455.3,569.7,481.1,530.7,481.1"/>
	<polygon class="st1" points="612,143.3 613.9,143.3 619.1,149.9 624.3,143.3 626.2,143.3 626.2,155.9 624.1,155.9 624.1,146.8 
		619.2,152.8 618.8,152.8 614.1,146.7 614.1,155.9 612,155.9 	"/>
	<path class="st1" d="M603,155.8c-2.2,0-5-0.7-6.3-2.7l-0.4-0.6l2.1-0.8l0.3,0.4c0.7,1.1,2.7,1.8,4.3,1.8c0.9,0,3.9-0.1,3.9-1.8
		c0-1.1-1.8-1.4-4.1-1.8c-2.7-0.4-5.7-0.9-5.7-3.5c0-0.8,0.3-1.5,0.8-2.1c1.5-1.5,4.3-1.6,5.1-1.6c1.8,0,4,0.2,5.6,2.1l0.5,0.6l-2,1
		l-0.3-0.4c-0.9-1.1-2.3-1.3-3.8-1.3c-1.3,0-3.6,0.3-3.6,1.7c0,0.9,1.6,1.2,3.8,1.5l0.2,0c2.8,0.4,5.9,0.9,5.9,3.8
		C609.1,154.4,606.8,155.8,603,155.8"/>
</g>
</svg>
